# WaveFront *.obj file (generated by Cinema 4D)

mtllib ./E.mtl

v -4.980621 21.694082 14.310150
v 2.310191 21.694082 14.310150
v 2.310191 20.468735 14.310150
v -3.659969 20.468735 14.310150
v -3.659969 17.432599 14.310150
v 1.860897 17.432599 14.310150
v 1.860897 16.275328 14.310150
v -3.659969 16.275328 14.310150
v -3.659969 12.885202 14.310150
v 2.412303 12.885202 14.310150
v 2.412303 11.693893 14.310150
v -4.980621 11.693893 14.310150
v -4.980621 21.694082 10.332400
v 2.310191 21.694082 10.332400
v 2.310191 20.468735 10.332400
v -3.659969 20.468735 10.332400
v -3.659969 17.432599 10.332400
v 1.860897 17.432599 10.332400
v 1.860897 16.275328 10.332400
v -3.659969 16.275328 10.332400
v -3.659969 12.885202 10.332400
v 2.412303 12.885202 10.332400
v 2.412303 11.693893 10.332400
v -4.980621 11.693893 10.332400
v -4.980621 21.694082 14.310150
v 2.310191 21.694082 14.310150
v 2.310191 20.468735 14.310150
v -3.659969 20.468735 14.310150
v -3.659969 17.432599 14.310150
v 1.860897 17.432599 14.310150
v 1.860897 16.275328 14.310150
v -3.659969 16.275328 14.310150
v -3.659969 12.885202 14.310150
v 2.412303 12.885202 14.310150
v 2.412303 11.693893 14.310150
v -4.980621 11.693893 14.310150
v -4.980621 21.694082 10.332400
v 2.310191 21.694082 10.332400
v 2.310191 20.468735 10.332400
v -3.659969 20.468735 10.332400
v -3.659969 17.432599 10.332400
v 1.860897 17.432599 10.332400
v 1.860897 16.275328 10.332400
v -3.659969 16.275328 10.332400
v -3.659969 12.885202 10.332400
v 2.412303 12.885202 10.332400
v 2.412303 11.693893 10.332400
v -4.980621 11.693893 10.332400
# 48 vertices

vn 0.000000 1.000000 0.000000
vn 1.000000 0.000000 0.000000
vn 0.000000 -1.000000 0.000000
vn -1.000000 0.000000 0.000000
vn 0.000000 0.000000 1.000000
vn 0.000000 0.000000 -1.000000
# 6 normals

vt 0.000000 1.000000 0.000000
vt 0.000000 0.000000 0.000000
vt 0.126208 0.000000 0.000000
vt 0.126208 1.000000 0.000000
vt 0.147419 0.000000 0.000000
vt 0.147419 1.000000 0.000000
vt 0.250766 0.000000 0.000000
vt 0.250766 1.000000 0.000000
vt 0.303323 0.000000 0.000000
vt 0.303323 1.000000 0.000000
vt 0.398892 0.000000 0.000000
vt 0.398892 1.000000 0.000000
vt 0.418925 0.000000 0.000000
vt 0.418925 1.000000 0.000000
vt 0.514494 0.000000 0.000000
vt 0.514494 1.000000 0.000000
vt 0.573179 0.000000 0.000000
vt 0.573179 1.000000 0.000000
vt 0.678294 0.000000 0.000000
vt 0.678294 1.000000 0.000000
vt 0.698916 0.000000 0.000000
vt 0.698916 1.000000 0.000000
vt 0.826891 0.000000 0.000000
vt 0.826891 1.000000 0.000000
vt 1.000000 0.000000 0.000000
vt 1.000000 1.000000 0.000000
vt 0.132063 0.877468 0.000000
vt 0.729067 1.000000 0.000000
vt 0.729067 0.877468 0.000000
vt 0.132063 0.573860 0.000000
vt 0.132063 0.458135 0.000000
vt 0.132063 0.119129 0.000000
vt 0.739278 0.119129 0.000000
vt 0.739278 0.000000 0.000000
vt 0.684139 0.573860 0.000000
vt 0.684139 0.458135 0.000000
# 36 texture coordinates

o E
usemtl letter
f 2/4/1 14/3/1 13/2/1 1/1/1
f 3/6/2 15/5/2 14/3/2 2/4/2
f 4/8/3 16/7/3 15/5/3 3/6/3
f 5/10/2 17/9/2 16/7/2 4/8/2
f 6/12/1 18/11/1 17/9/1 5/10/1
f 7/14/2 19/13/2 18/11/2 6/12/2
f 8/16/3 20/15/3 19/13/3 7/14/3
f 9/18/2 21/17/2 20/15/2 8/16/2
f 10/20/1 22/19/1 21/17/1 9/18/1
f 11/22/2 23/21/2 22/19/2 10/20/2
f 12/24/3 24/23/3 23/21/3 11/22/3
f 1/26/4 13/25/4 24/23/4 12/24/4
f 36/2/5 35/34/5 34/33/5 33/32/5 32/31/5 31/36/5 30/35/5 29/30/5 28/27/5 27/29/5 26/28/5 25/1/5
f 38/28/6 39/29/6 40/27/6 41/30/6 42/35/6 43/36/6 44/31/6 45/32/6 46/33/6 47/34/6 48/2/6 37/1/6

