# WaveFront *.obj file (generated by Cinema 4D)

mtllib ./mouth_smile.mtl

v -13.854953 37.830969 20.065857
v -13.854953 37.830969 18.138271
v -12.751252 37.078831 19.987615
v -12.751252 37.078831 18.216512
v -11.647550 36.409797 19.918019
v -11.647550 36.409797 18.286108
v -10.543849 35.823868 19.857067
v -10.543849 35.823868 18.347060
v -9.440148 35.321042 19.804761
v -9.440148 35.321042 18.399367
v -8.336447 34.901320 19.761099
v -8.336447 34.901320 18.443028
v -7.232746 34.564703 19.726082
v -7.232746 34.564703 18.478045
v -6.129045 34.311189 19.699711
v -6.129045 34.311189 18.504417
v -5.025344 34.140780 19.681984
v -5.025344 34.140780 18.522144
v -3.921643 34.053475 19.672902
v -3.921643 34.053475 18.531226
v -2.817942 34.049273 19.672465
v -2.817942 34.049273 18.531663
v -1.714241 34.128176 19.680673
v -1.714241 34.128176 18.523455
v -0.610540 34.290183 19.697525
v -0.610540 34.290183 18.506602
v 0.493161 34.535294 19.723023
v 0.493161 34.535294 18.481104
v 1.596862 34.863509 19.757166
v 1.596862 34.863509 18.446962
v 2.700563 35.274829 19.799953
v 2.700563 35.274829 18.404174
v 3.804264 35.769252 19.851386
v 3.804264 35.769252 18.352741
v 4.907966 36.346779 19.911463
v 4.907966 36.346779 18.292664
v 6.011667 37.007411 19.980186
v 6.011667 37.007411 18.223941
v 7.115368 37.751146 20.057553
v 7.115368 37.751146 18.146574
v 8.219069 38.577986 20.143566
v 8.219069 38.577986 18.060562
v 8.219069 35.833531 20.143566
v 8.219069 35.833531 18.060562
v 7.115368 35.233341 20.057553
v 7.115368 35.233341 18.146574
v 6.011667 34.693476 19.980186
v 6.011667 34.693476 18.223941
v 4.907966 34.213935 19.911463
v 4.907966 34.213935 18.292664
v 3.804264 33.794717 19.851386
v 3.804264 33.794717 18.352741
v 2.700563 33.435823 19.799953
v 2.700563 33.435823 18.404174
v 1.596862 33.137254 19.757166
v 1.596862 33.137254 18.446962
v 0.493161 32.899008 19.723023
v 0.493161 32.899008 18.481104
v -0.610540 32.721086 19.697525
v -0.610540 32.721086 18.506602
v -1.714241 32.603487 19.680673
v -1.714241 32.603487 18.523455
v -2.817942 32.546213 19.672465
v -2.817942 32.546213 18.531663
v -3.921643 32.549263 19.672902
v -3.921643 32.549263 18.531226
v -5.025344 32.612636 19.681984
v -5.025344 32.612636 18.522144
v -6.129045 32.736334 19.699711
v -6.129045 32.736334 18.504417
v -7.232746 32.920355 19.726082
v -7.232746 32.920355 18.478045
v -8.336447 33.164700 19.761099
v -8.336447 33.164700 18.443028
v -9.440148 33.469369 19.804761
v -9.440148 33.469369 18.399367
v -10.543849 33.834362 19.857067
v -10.543849 33.834362 18.347060
v -11.647550 34.259678 19.918019
v -11.647550 34.259678 18.286108
v -12.751252 34.745319 19.987615
v -12.751252 34.745319 18.216512
v -13.854953 35.291284 20.065857
v -13.854953 35.291284 18.138271
# 84 vertices

vn 0.563141 0.826361 0.000000
vn 0.540948 0.841056 0.000000
vn 0.493835 0.869556 0.000000
vn 0.441944 0.897043 0.000000
vn 0.385215 0.922827 0.000000
vn 0.323771 0.946135 0.000000
vn 0.257954 0.966157 0.000000
vn 0.188350 0.982102 0.000000
vn 0.115802 0.993272 0.000000
vn 0.041361 0.999144 0.000000
vn -0.033775 0.999430 0.000000
vn -0.108343 0.994114 0.000000
vn -0.181133 0.983459 0.000000
vn -0.251076 0.967967 0.000000
vn -0.317308 0.948323 0.000000
vn -0.379213 0.925309 0.000000
vn -0.436427 0.899740 0.000000
vn -0.488808 0.872391 0.000000
vn -0.536396 0.843966 0.000000
vn -0.579374 0.815062 0.000000
vn -0.599567 0.800324 0.000000
vn 1.000000 0.000000 0.000000
vn 0.859573 -0.511014 0.000000
vn 0.458667 -0.888608 0.000000
vn 0.419050 -0.907963 0.000000
vn 0.376892 -0.926257 0.000000
vn 0.332256 -0.943189 0.000000
vn 0.285272 -0.958446 0.000000
vn 0.236144 -0.971718 0.000000
vn 0.185140 -0.982712 0.000000
vn 0.132596 -0.991170 0.000000
vn 0.078914 -0.996881 0.000000
vn 0.024540 -0.999699 0.000000
vn -0.030054 -0.999548 0.000000
vn -0.084381 -0.996434 0.000000
vn -0.137968 -0.990437 0.000000
vn -0.190374 -0.981712 0.000000
vn -0.241202 -0.970475 0.000000
vn -0.290125 -0.956989 0.000000
vn -0.336877 -0.941549 0.000000
vn -0.381268 -0.924465 0.000000
vn -0.423173 -0.906049 0.000000
vn -0.849525 -0.527549 0.000000
vn -1.000000 0.000000 0.000000
vn 0.070712 0.000000 -0.997497
vn 0.066822 0.000000 -0.997765
vn 0.059036 0.000000 -0.998256
vn 0.051240 0.000000 -0.998686
vn 0.043434 0.000000 -0.999056
vn 0.035620 0.000000 -0.999365
vn 0.027800 0.000000 -0.999614
vn 0.019974 0.000000 -0.999801
vn 0.012143 0.000000 -0.999926
vn 0.004312 0.000000 -0.999991
vn -0.003520 0.000000 -0.999994
vn -0.011352 0.000000 -0.999936
vn -0.019182 0.000000 -0.999816
vn -0.027007 0.000000 -0.999635
vn -0.034829 0.000000 -0.999393
vn -0.042645 0.000000 -0.999090
vn -0.050452 0.000000 -0.998727
vn -0.058249 0.000000 -0.998302
vn -0.066036 0.000000 -0.997817
vn -0.073811 0.000000 -0.997272
vn -0.077695 0.000000 -0.996977
vn 0.070712 0.000000 0.997497
vn 0.066823 0.000000 0.997765
vn 0.059037 0.000000 0.998256
vn 0.051240 0.000000 0.998686
vn 0.043434 0.000000 0.999056
vn 0.035620 0.000000 0.999365
vn 0.027799 0.000000 0.999614
vn 0.019973 0.000000 0.999801
vn 0.012144 0.000000 0.999926
vn 0.004312 0.000000 0.999991
vn -0.003520 0.000000 0.999994
vn -0.011352 0.000000 0.999936
vn -0.019182 0.000000 0.999816
vn -0.027008 0.000000 0.999635
vn -0.034830 0.000000 0.999393
vn -0.042644 0.000000 0.999090
vn -0.050451 0.000000 0.998727
vn -0.058250 0.000000 0.998302
vn -0.066037 0.000000 0.997817
vn -0.073811 0.000000 0.997272
vn -0.077695 0.000000 0.996977
# 86 normals

vt 0.000000 0.000000 0.000000
vt 0.000000 1.000000 0.000000
vt 0.050000 1.000000 0.000000
vt 0.050000 0.000000 0.000000
vt 0.100000 1.000000 0.000000
vt 0.100000 0.000000 0.000000
vt 0.150000 1.000000 0.000000
vt 0.150000 0.000000 0.000000
vt 0.200000 1.000000 0.000000
vt 0.200000 0.000000 0.000000
vt 0.250000 1.000000 0.000000
vt 0.250000 0.000000 0.000000
vt 0.300000 1.000000 0.000000
vt 0.300000 0.000000 0.000000
vt 0.350000 1.000000 0.000000
vt 0.350000 0.000000 0.000000
vt 0.400000 1.000000 0.000000
vt 0.400000 0.000000 0.000000
vt 0.450000 1.000000 0.000000
vt 0.450000 0.000000 0.000000
vt 0.500000 1.000000 0.000000
vt 0.500000 0.000000 0.000000
vt 0.550000 1.000000 0.000000
vt 0.550000 0.000000 0.000000
vt 0.600000 1.000000 0.000000
vt 0.600000 0.000000 0.000000
vt 0.650000 1.000000 0.000000
vt 0.650000 0.000000 0.000000
vt 0.700000 1.000000 0.000000
vt 0.700000 0.000000 0.000000
vt 0.750000 1.000000 0.000000
vt 0.750000 0.000000 0.000000
vt 0.800000 1.000000 0.000000
vt 0.800000 0.000000 0.000000
vt 0.850000 1.000000 0.000000
vt 0.850000 0.000000 0.000000
vt 0.900000 1.000000 0.000000
vt 0.900000 0.000000 0.000000
vt 0.950000 1.000000 0.000000
vt 0.950000 0.000000 0.000000
vt 1.000000 1.000000 0.000000
vt 1.000000 0.000000 0.000000
# 42 texture coordinates

o mouth_smile
usemtl mouth
f 3/4/2 4/3/2 2/2/1 1/1/1
f 5/6/3 6/5/3 4/3/2 3/4/2
f 7/8/4 8/7/4 6/5/3 5/6/3
f 9/10/5 10/9/5 8/7/4 7/8/4
f 11/12/6 12/11/6 10/9/5 9/10/5
f 13/14/7 14/13/7 12/11/6 11/12/6
f 15/16/8 16/15/8 14/13/7 13/14/7
f 17/18/9 18/17/9 16/15/8 15/16/8
f 19/20/10 20/19/10 18/17/9 17/18/9
f 21/22/11 22/21/11 20/19/10 19/20/10
f 23/24/12 24/23/12 22/21/11 21/22/11
f 25/26/13 26/25/13 24/23/12 23/24/12
f 27/28/14 28/27/14 26/25/13 25/26/13
f 29/30/15 30/29/15 28/27/14 27/28/14
f 31/32/16 32/31/16 30/29/15 29/30/15
f 33/34/17 34/33/17 32/31/16 31/32/16
f 35/36/18 36/35/18 34/33/17 33/34/17
f 37/38/19 38/37/19 36/35/18 35/36/18
f 39/40/20 40/39/20 38/37/19 37/38/19
f 41/42/21 42/41/21 40/39/20 39/40/20
f 43/42/23 44/41/23 42/2/22 41/1/22
f 45/4/24 46/3/24 44/2/23 43/1/23
f 47/6/25 48/5/25 46/3/24 45/4/24
f 49/8/26 50/7/26 48/5/25 47/6/25
f 51/10/27 52/9/27 50/7/26 49/8/26
f 53/12/28 54/11/28 52/9/27 51/10/27
f 55/14/29 56/13/29 54/11/28 53/12/28
f 57/16/30 58/15/30 56/13/29 55/14/29
f 59/18/31 60/17/31 58/15/30 57/16/30
f 61/20/32 62/19/32 60/17/31 59/18/31
f 63/22/33 64/21/33 62/19/32 61/20/32
f 65/24/34 66/23/34 64/21/33 63/22/33
f 67/26/35 68/25/35 66/23/34 65/24/34
f 69/28/36 70/27/36 68/25/35 67/26/35
f 71/30/37 72/29/37 70/27/36 69/28/36
f 73/32/38 74/31/38 72/29/37 71/30/37
f 75/34/39 76/33/39 74/31/38 73/32/38
f 77/36/40 78/35/40 76/33/39 75/34/39
f 79/38/41 80/37/41 78/35/40 77/36/40
f 81/40/42 82/39/42 80/37/41 79/38/41
f 83/42/43 84/41/43 82/39/42 81/40/42
f 1/42/44 2/41/44 84/2/43 83/1/43
f 4/4/46 82/3/46 84/2/45 2/1/45
f 6/6/47 80/5/47 82/3/46 4/4/46
f 8/8/48 78/7/48 80/5/47 6/6/47
f 10/10/49 76/9/49 78/7/48 8/8/48
f 12/12/50 74/11/50 76/9/49 10/10/49
f 14/14/51 72/13/51 74/11/50 12/12/50
f 16/16/52 70/15/52 72/13/51 14/14/51
f 18/18/53 68/17/53 70/15/52 16/16/52
f 20/20/54 66/19/54 68/17/53 18/18/53
f 22/22/55 64/21/55 66/19/54 20/20/54
f 24/24/56 62/23/56 64/21/55 22/22/55
f 26/26/57 60/25/57 62/23/56 24/24/56
f 28/28/58 58/27/58 60/25/57 26/26/57
f 30/30/59 56/29/59 58/27/58 28/28/58
f 32/32/60 54/31/60 56/29/59 30/30/59
f 34/34/61 52/33/61 54/31/60 32/32/60
f 36/36/62 50/35/62 52/33/61 34/34/61
f 38/38/63 48/37/63 50/35/62 36/36/62
f 40/40/64 46/39/64 48/37/63 38/38/63
f 42/42/65 44/41/65 46/39/64 40/40/64
f 81/4/67 3/3/67 1/2/66 83/1/66
f 79/6/68 5/5/68 3/3/67 81/4/67
f 77/8/69 7/7/69 5/5/68 79/6/68
f 75/10/70 9/9/70 7/7/69 77/8/69
f 73/12/71 11/11/71 9/9/70 75/10/70
f 71/14/72 13/13/72 11/11/71 73/12/71
f 69/16/73 15/15/73 13/13/72 71/14/72
f 67/18/74 17/17/74 15/15/73 69/16/73
f 65/20/75 19/19/75 17/17/74 67/18/74
f 63/22/76 21/21/76 19/19/75 65/20/75
f 61/24/77 23/23/77 21/21/76 63/22/76
f 59/26/78 25/25/78 23/23/77 61/24/77
f 57/28/79 27/27/79 25/25/78 59/26/78
f 55/30/80 29/29/80 27/27/79 57/28/79
f 53/32/81 31/31/81 29/29/80 55/30/80
f 51/34/82 33/33/82 31/31/81 53/32/81
f 49/36/83 35/35/83 33/33/82 51/34/82
f 47/38/84 37/37/84 35/35/83 49/36/83
f 45/40/85 39/39/85 37/37/84 47/38/84
f 43/42/86 41/41/86 39/39/85 45/40/85

