# WaveFront *.obj file (generated by Cinema 4D)

mtllib ./N.mtl

v -5.064302 21.909576 14.547590
v -3.465947 21.909576 14.614580
v 1.580772 13.808674 14.826101
v 1.580772 21.909576 14.826101
v 2.866258 21.909576 14.879978
v 2.866258 11.909387 14.879978
v 1.349521 11.909387 14.816408
v 1.516092 11.909387 10.842148
v 3.032828 11.909387 10.905718
v -5.064302 11.909387 14.547590
v -4.897731 21.909576 10.573329
v 3.032828 21.909576 10.905718
v 1.747343 21.909576 10.851840
v 1.747343 13.808674 10.851840
v -3.299377 21.909576 10.640320
v -3.772015 11.909387 14.601752
v -3.772015 20.003481 14.601752
v -3.605444 20.003481 10.627492
v -3.605444 11.909387 10.627492
v -4.897731 11.909387 10.573329
# 20 vertices

vn -0.041876 0.000000 0.999123
vn -0.041876 0.000000 0.999123
vn -0.041876 0.000000 0.999123
vn -0.041876 0.000000 0.999123
vn -0.041876 0.000000 0.999123
vn -0.041876 0.000000 0.999123
vn -0.041876 0.000000 0.999123
vn -0.041876 0.000000 0.999123
vn 0.041876 -0.000000 -0.999123
vn 0.041876 -0.000000 -0.999123
vn 0.041876 -0.000000 -0.999123
vn 0.041876 -0.000000 -0.999123
vn 0.041876 -0.000000 -0.999123
vn 0.041876 0.000000 -0.999123
vn 0.041876 -0.000000 -0.999123
vn 0.041876 0.000000 -0.999123
vn 0.000000 1.000000 0.000000
vn 0.847814 0.529101 0.035534
vn -0.999123 0.000000 -0.041876
vn 0.999123 0.000000 0.041876
vn 0.000000 -1.000000 0.000000
vn -0.844089 -0.535035 -0.035378
vn 0.999123 0.000000 0.041876
vn -0.999123 0.000000 -0.041876
# 24 normals

vt 0.000000 0.000000 0.000000
vt 0.000000 1.000000 0.000000
vt 0.129340 0.809394 0.000000
vt 0.129340 0.000000 0.000000
vt 0.665078 0.189925 0.000000
vt 0.665078 1.000000 0.000000
vt 0.793737 1.000000 0.000000
vt 0.793737 0.000000 0.000000
vt 0.641933 0.000000 0.000000
vt 0.159973 1.000000 0.000000
vt 0.026217 0.000000 0.000000
vt 0.026217 1.000000 0.000000
vt 0.182666 0.000000 0.000000
vt 0.182666 1.000000 0.000000
vt 0.315423 0.000000 0.000000
vt 0.315423 1.000000 0.000000
vt 0.336508 0.000000 0.000000
vt 0.336508 1.000000 0.000000
vt 0.500390 0.000000 0.000000
vt 0.500390 1.000000 0.000000
vt 0.525268 0.000000 0.000000
vt 0.525268 1.000000 0.000000
vt 0.682276 0.000000 0.000000
vt 0.682276 1.000000 0.000000
vt 0.814921 0.000000 0.000000
vt 0.814921 1.000000 0.000000
vt 0.836118 0.000000 0.000000
vt 0.836118 1.000000 0.000000
vt 1.000000 0.000000 0.000000
vt 1.000000 1.000000 0.000000
# 30 texture coordinates

o N
usemtl letter
f 10/1/1 16/4/1 17/3/3 7/9/7 6/8/6 5/7/5 4/6/5 3/5/4 2/10/8 1/2/2
f 15/10/0 14/5/11 13/6/16 12/7/16 9/8/15 8/9/10 18/3/9 19/4/14 20/1/14 11/2/13
f 2/12/17 15/11/17 11/1/17 1/2/17
f 3/14/18 14/13/18 15/11/18 2/12/18
f 4/16/19 13/15/19 14/13/19 3/14/19
f 5/18/17 12/17/17 13/15/17 4/16/17
f 6/20/20 9/19/20 12/17/20 5/18/20
f 7/22/21 8/21/21 9/19/21 6/20/21
f 17/24/22 18/23/22 8/21/22 7/22/22
f 16/26/23 19/25/23 18/23/23 17/24/23
f 10/28/21 20/27/21 19/25/21 16/26/21
f 1/30/24 11/29/24 20/27/24 10/28/24

